<?xml version="1.0" encoding="utf-8"?>
<!-- Generator: Adobe Illustrator 17.1.0, SVG Export Plug-In . SVG Version: 6.00 Build 0)  -->
<!DOCTYPE svg PUBLIC "-//W3C//DTD SVG 1.1//EN" "http://www.w3.org/Graphics/SVG/1.1/DTD/svg11.dtd">
<svg version="1.1" id="Layer_1" xmlns="http://www.w3.org/2000/svg" xmlns:xlink="http://www.w3.org/1999/xlink" x="0px" y="0px"
	 viewBox="0 0 2500 2700" enable-background="new 0 0 2500 2700" xml:space="preserve">
<g id="routes">
	<polyline fill="none" stroke="#009B3A" stroke-width="9" stroke-linejoin="round" points="1336.8,1987.4 1377,1964.2 
		1417.6,1923.6 1424.6,1916.5 1525.3,1815.8 	"/>
	<polyline fill="none" stroke="#FECB00" stroke-width="9" stroke-linejoin="round" points="834,769.7 834,1063 364.8,1063 	"/>
	<polyline fill="none" stroke="#FECB00" stroke-width="9" stroke-linejoin="round" points="824,769.7 824,1053 348.3,1053 
		348.3,1185 529.7,1366.4 529.7,1575.2 539.7,1585.2 539.7,1620.5 	"/>
	<polyline fill="none" stroke="#FECB00" stroke-width="9" stroke-linejoin="round" points="762.1,1875.3 793,1875 830,1838 
		915.7,1838 957.8,1880 957.8,2436.2 1032.5,2565.6 	"/>
	<polyline fill="none" stroke="#FECB00" stroke-width="9" stroke-linejoin="round" points="519.7,1579.2 529.7,1589.2 529.7,1599.2 
		529.7,1693 491.2,1731.5 491.2,1835 531.2,1875 584.1,1875 	"/>
	<polyline fill="none" stroke="#FECB00" stroke-width="9" stroke-linejoin="round" points="341.5,1063 338.3,1063 338.3,1063 
		338.3,1189.2 519.7,1370.5 519.7,1493.6 519.7,1475.3 519.7,1620.5 726.3,1620.5 1258.4,2152.6 1289,2205.7 1508,2424.7 1508,2452 
		1367.3,2592.7 	"/>
	<line fill="none" stroke="#FF6319" stroke-width="9" stroke-linejoin="round" x1="829.1" y1="1924.7" x2="829.1" y2="1883.3"/>
	<polyline fill="none" stroke="#0039A6" stroke-width="9" stroke-linejoin="round" points="437.3,1741.3 437.3,1652.7 427.3,1642.7 
			"/>
	<polyline fill="none" stroke="#FF6319" stroke-width="9" stroke-linejoin="round" points="653.8,1535.7 686,1535.7 686,1569 
		932.5,1569 942.5,1569 1266,1569 1439,1396 1439,1327 1483,1283 1483,1253.7 	"/>
	<polyline fill="none" stroke="#939598" stroke-width="9" stroke-linejoin="round" points="250.9,1396.3 714.3,1396.3 930.7,1396.3 
		1001,1326 1114.3,1439.3 1177.4,1376.3 1223.3,1376.3 1489,1376.3 1489,1518.3 1702.3,1731.7 1702.3,1812.5 	"/>
	<polyline fill="none" stroke="#009B3A" stroke-width="9" stroke-linejoin="round" points="579.1,1685.2 579.1,1263.7 599.1,1243.7 
		599.1,636.2 639.9,595.4 883,595.4 883,406.5 1138,151.5 	"/>
	<polyline fill="none" stroke="#009B3A" stroke-width="9" stroke-linejoin="round" points="521.6,101 521.6,398.6 502.2,418 
		502.2,483.8 589.1,570.7 589.1,1239.6 569.1,1259.6 569.1,1702.7 561,1710.8 	"/>
	<polyline fill="none" stroke="#0039A6" stroke-width="9" stroke-linejoin="round" points="1867.7,963.7 1929,1025 1995.7,958.4 	
		"/>
	<g>
		<rect x="343.4" y="1057.6" fill="#FFFFFF" width="10" height="5.2"/>
		<rect x="343.4" y="1062.8" fill="#FFFFFF" width="10" height="5.7"/>
	</g>
	
		<line fill="none" stroke="#0039A6" stroke-width="9" stroke-linejoin="round" stroke-dasharray="22,1" x1="1877.7" y1="973.7" x2="2028.3" y2="823"/>
	<polyline fill="none" stroke="#0039A6" stroke-width="9" stroke-linejoin="round" points="888.1,1036.1 1013.2,911 1305.7,911 
		1377.7,911 1405,938.3 1842.3,938.3 1867.7,963.7 	"/>
	<polyline fill="none" stroke="#FF6319" stroke-width="9" stroke-linejoin="round" points="663.8,1535.7 447.3,1535.7 447.3,1021 
		824,1021 889.1,1021 889.1,1021 1009.1,901 1023.2,901 1381.8,901 1409.1,928.3 1846.5,928.3 1877.7,959.5 2021.3,815.9 	"/>
	<polyline fill="none" stroke="#FF6319" stroke-width="9" stroke-linejoin="round" points="1474.4,2471.5 1498,2447.9 1498,2428.5 
		1279.6,2210.1 1249,2157.1 722.4,1630.5 676,1630.5 676,1584.1 676,1545.7 613,1545.7 437.3,1545.7 437.3,1125.7 255.4,1125.7 
		245.4,1125.7 225.4,1125.7 225.8,701.7 215.8,691.7 215.4,566.6 257,525 327.9,454.2 585,454.2 585,116 626,116 	"/>
	<polyline fill="none" stroke="#FF6319" stroke-width="9" stroke-linejoin="round" points="1360.3,2585.6 1431.3,2514.6 
		1130.2,2213.5 1130.2,2197.5 1076.3,2143.7 1053,2143.7 1053,2085 1034.8,2085 	"/>
	<polyline fill="none" stroke="#C3A3CD" stroke-width="4" stroke-linejoin="round" points="-43.2,1548.7 250.4,1548.7 427.3,1446.5 
		427.3,1300.9 	"/>
	<polyline fill="none" stroke="#B634BB" stroke-width="9" stroke-linejoin="round" points="913.7,1099.7 887,1073 836.1,1073 
		796.3,1073 774,1073 774,1116 841.6,1183.6 806.1,1219.1 334.3,1219.1 	"/>
	<polyline fill="none" stroke="#FF6319" stroke-width="9" stroke-linejoin="round" stroke-dasharray="22,1" points="245.4,565 
		245.4,550.6 287,508.9 331.8,464.2 595,464.2 595,149.3 	"/>
	<polyline fill="none" stroke="#FF6319" stroke-width="9" stroke-linejoin="round" points="255.4,1125.7 255.8,690 245.8,680 
		245.4,566 	"/>
	<line fill="none" stroke="#6D6E71" stroke-width="9" stroke-linejoin="round" x1="334.3" y1="1209.1" x2="582.5" y2="1209.1"/>
	<polyline fill="none" stroke="#E00034" stroke-width="9" stroke-linejoin="round" points="438.3,619.2 458.8,598.8 478.8,598.8 
		521,556.5 685.5,556.5 855,387 855,279.7 776.5,143.8 776.5,21.7 	"/>
	<polyline fill="none" stroke="#0039A6" stroke-width="9" stroke-linejoin="round" points="1901.3,1281.3 1923,1281.3 
		2342.2,1700.5 2354,1700.5 2460,1594.5 	"/>
	<polyline fill="none" stroke="#0039A6" stroke-width="9" stroke-linejoin="round" points="245.4,1147 257.2,1135.2 789,1135.2 
		898.1,1026.1 	"/>
	<polyline fill="none" stroke="#6D6E71" stroke-width="9" stroke-linejoin="round" points="2227,1827.4 2341,1713.4 2336.9,1709.3 
		2251.7,1624.1 	"/>
	<polyline fill="none" stroke="#0039A6" stroke-width="9" stroke-linejoin="round" stroke-dasharray="22,1" points="2234.1,1834.5 
		2355.2,1713.4 2333.4,1691.6 	"/>
	<g>
		<line fill="none" stroke="#FECB00" stroke-width="10" stroke-linejoin="round" x1="967.8" y1="1848.7" x2="967.8" y2="1903.3"/>
		<polyline fill="none" stroke="#FECB00" stroke-width="9" stroke-linejoin="round" points="924.7,1818.9 938,1818.9 967.8,1848.7 
			967.8,2384 1212.3,2384 1366,2537.6 1380,2551.7 1353.2,2578.5 		"/>
	</g>
	<polyline fill="none" stroke="#009B3A" stroke-width="9" stroke-linejoin="round" points="865,55.3 865,198 865,283.6 865,391.1 
		689.6,566.5 599.1,566.5 599.1,621.7 589.1,631.7 	"/>
	<polyline fill="none" stroke="#009B3A" stroke-width="9" stroke-linejoin="round" points="639.1,596.2 649.9,585.4 873,585.4 
		873,402.4 1130.9,144.4 	"/>
	<polyline fill="none" stroke="#955214" stroke-width="9" stroke-linejoin="round" points="2002.7,965.4 1926.4,1041.8 
		1880.6,1041.8 1648.2,1274.2 1727,1353.9 1501.9,1579 946.6,1579 936.6,1579 793.2,1579 703.3,1579 633,1579 622,1579 622,1718 
		606,1734 606,1844.5 	"/>
	<line fill="none" stroke="#C3A3CD" stroke-width="4" stroke-linejoin="round" x1="-69.7" y1="1735.3" x2="407.3" y2="1735.3"/>
	<g>
		<g>
			<path fill="none" stroke="#03705F" stroke-width="4" stroke-linejoin="round" d="M2138.3,1423h92.7l0,0h39.7c0,0,15.5,6.7,20,10
				c8.1,5.9,28.3,28.3,28.3,28.3"/>
			<path fill="none" stroke="#03705F" stroke-width="4" stroke-linejoin="round" d="M2311.6,1392"/>
		</g>
		<polyline fill="none" stroke="#03705F" stroke-width="4" stroke-linejoin="round" points="2148.3,1423 2102.5,1423 2090.7,1434.8 
					"/>
		<circle fill="none" stroke="#03705F" stroke-width="4" stroke-linejoin="round" cx="2349.6" cy="1423" r="49"/>
	</g>
	<polyline fill="none" stroke="#006BB6" stroke-width="9" stroke-linejoin="round" points="39.8,2677.6 437,2280.4 348.7,2192.1 	
		"/>
	<polyline fill="none" stroke="#009B3A" stroke-width="9" stroke-linejoin="round" stroke-dasharray="22,1" points="865,277 
		786.5,141.1 786.5,45.9 	"/>
	<g>
		<line fill="none" stroke="#FF6319" stroke-width="10" stroke-linejoin="round" x1="977.9" y1="1848.7" x2="977.9" y2="1897.3"/>
		<polyline fill="none" stroke="#FF6319" stroke-width="9" stroke-linejoin="round" points="900.8,1808.9 943,1808.9 977.9,1844.6 
			977.9,2254 1037,2254 1193.4,2524.8 1286.5,2524.8 1339.6,2578 1357.6,2560 		"/>
	</g>
	<g>
		<polyline fill="none" stroke="#0039A6" stroke-width="9" stroke-linejoin="round" points="120.5,291.8 91.3,321 91.3,392.8 
			225.4,526.9 225.4,687.7 235.4,697.7 235.4,1411.6 417.3,1516.4 417.3,1747.7 		"/>
	</g>
	<g>
		<polyline fill="none" stroke="#0039A6" stroke-width="9" stroke-linejoin="round" points="819.1,1947.2 819.1,1811.7 755,1747.7 
			437.3,1747.7 417.3,1747.7 417.3,1740.3 		"/>
		<polyline fill="none" stroke="#0039A6" stroke-width="9" stroke-linejoin="round" points="152.1,439.9 235.4,523.2 235.4,684 
			245.4,694 245.4,1405.7 427.3,1510.7 427.3,1667.7 427.3,1747.7 		"/>
	</g>
	<polyline fill="none" stroke="#E00034" stroke-width="9" stroke-linejoin="round" points="1759.1,1606.1 1568.4,1796.8 
		1516.1,1796.8 1396.4,1916.5 1380.9,1931.9 1380.9,1946.1 	"/>
	<polyline fill="none" stroke="#E00034" stroke-width="9" stroke-linejoin="round" points="363.5,572.3 439,572.3 439,753.7 
		150.8,753.7 150.9,980.2 328.1,1157.9 328,1657.7 359.4,1711.4 640.1,1711.4 640.1,1839.8 728.2,1839.8 760.1,1895 1043.4,1895 
		1202.1,2053.6 1202.1,2053.6 1370.8,1956.2 1394.2,1932.8 	"/>
	<path fill="none" stroke="#E00034" stroke-width="9" stroke-linejoin="round" d="M1588.5,2108.5l-174.9-174.9h-20.1
		c0,0-1.5,1.5-4.3,4.3"/>
	<line fill="none" stroke="#FFFFFF" stroke-width="20" x1="957.8" y1="925.3" x2="957.8" y2="984"/>
	<polyline fill="none" stroke="#955214" stroke-width="9" stroke-linejoin="round" stroke-dasharray="22,1" points="2009.8,972.5 
		1930.6,1051.8 1884.7,1051.8 1662.2,1274.2 1741,1354 1506,1589 932.5,1589 922.5,1579 912.3,1579 	"/>
	<polyline fill="none" stroke="#E00034" stroke-width="9" stroke-linejoin="round" points="186.3,120.2 186.3,229 140.1,275.1 
		140.1,312.7 130.1,322.7 130.1,743.7 140.1,753.7 140.1,984.3 318.3,1162.5 318.3,1633.2 318.3,1661 449,1887.4 531.5,1887.4 	"/>
	<polyline fill="none" stroke="#FECB00" stroke-width="9" stroke-linejoin="round" points="773.7,1063 824.5,1113.9 953.2,985.2 
		953.2,881 1387.7,881 1390.1,881 1417.9,908.8 1696.5,908.8 	"/>
	<polyline fill="none" stroke="#FF6319" stroke-width="9" stroke-linejoin="round" points="447.3,1125.7 797.3,1125.7 826.9,1125.7 
		962.8,989.7 962.8,891 1377.7,891 1386,891 1413.7,918.7 1696.5,918.7 	"/>
	<line fill="none" stroke="#FF6319" stroke-width="9" stroke-linejoin="round" x1="1044.8" y1="2085" x2="851.2" y2="2085"/>
	<g>
		<g>
			<polyline fill="none" stroke="#7AB800" stroke-width="9" stroke-linejoin="round" points="828.1,1138.6 778.3,1188.3 
				778.3,1209.4 778.3,1225.8 891.9,1339.4 871.9,1359.4 1119.4,1606.9 1119.4,1635.9 1226.3,1742.7 1011.8,1957.2 819.1,1957.2 
				819.1,2095 1043,2095 1043,2153.7 1072.2,2153.7 1120.2,2201.7 1120.2,2217.7 1157,2254.5 			"/>
		</g>
	</g>
	<polyline fill="none" stroke="#B634BB" stroke-width="9" stroke-linejoin="round" points="1600.3,586.3 1087,1099.7 913.7,1099.7 	
		"/>
	<polyline fill="none" stroke="#B634BB" stroke-width="9" stroke-linejoin="round" points="1607.4,593.4 1090.4,1109.7 
		923.7,1109.7 910.1,1096.1 	"/>
	<rect x="713.2" y="1555.8" fill="#FFFFFF" width="12" height="30.3"/>
	<polyline fill="none" stroke="#FF6319" stroke-width="9" stroke-linejoin="round" points="861.2,2085 829.1,2085 829.1,1923.7 	"/>
	<polyline fill="none" stroke="#006BB6" stroke-width="9" stroke-linejoin="round" stroke-dasharray="22,1" points="312,2405.4 
		312,2391.2 422.9,2280.4 341.6,2199.2 	"/>
	<path fill="none" stroke="#03705F" stroke-width="4" stroke-linejoin="round" d="M2311.6,1392c0,0-14.9,16.6-21,21
		c-4.5,3.3-20,10-20,10"/>
	<polyline fill="none" stroke="#E00034" stroke-width="9" stroke-linejoin="round" stroke-dasharray="22,1" points="1766.2,1613.2 
		1572.5,1806.8 1520.2,1806.8 1403.4,1923.6 1388,1939 	"/>
	<line fill="none" stroke="#FECB00" stroke-width="9" stroke-linejoin="round" x1="364.8" y1="1063" x2="341.5" y2="1063"/>
	<polyline fill="none" stroke="#FF6319" stroke-width="9" stroke-linejoin="round" points="829.1,1884.3 829.1,1689.2 757.8,1626.8 
		719.2,1588.3 719.2,1572.3 719.2,1525.7 697.8,1525.7 663.8,1525.7 653.8,1535.7 	"/>
	<polyline fill="none" stroke="#0039A6" stroke-width="9" stroke-linejoin="round" points="819.1,1938 819.1,1947.2 1007.7,1947.2 
		1049.9,1905 1168.3,1905 1286.6,1836.7 1567.1,1556.2 1604.9,1594.1 1840.1,1358.9 1840.1,1342.5 1965.8,1216.8 	"/>
	<g>
		<g>
			<path fill="#8DCDFF" d="M289.2,2427.3c1.1,0,1.5-1.4,0.2-1.4C288.3,2426,287.9,2427.3,289.2,2427.3L289.2,2427.3z"/>
		</g>
	</g>
	<polyline fill="none" stroke="#03705F" stroke-width="4" stroke-linejoin="round" points="2202,1423 2179.7,1423 2169.7,1413 
		2169.7,1361.7 2169.7,1333.7 2169.7,1313.7 2169.7,1268.7 2169.7,1268.7 1948.7,1047.7 1963.7,1032.7 	"/>
	<g>
		
			<rect x="1605.3" y="1586.7" transform="matrix(0.7071 0.7072 -0.7072 0.7071 1595.6069 -673.1645)" fill="#FFFFFF" width="10" height="5.2"/>
		
			<rect x="1609.2" y="1582.7" transform="matrix(0.7071 0.7071 -0.7071 0.7071 1593.9634 -676.9715)" fill="#FFFFFF" width="10" height="5.7"/>
	</g>
	<polyline fill="none" stroke="#0039A6" stroke-width="9" stroke-linejoin="round" points="1046.1,1908.8 1059.9,1895 1087.6,1895 
		1165.6,1895 1281.5,1828.1 1567.3,1542.3 1619.1,1594.1 1793.3,1419.8 	"/>
	<polyline fill="none" stroke="#009B3A" stroke-width="9" stroke-linejoin="round" points="1336.8,1987.4 1200.4,2066.1 
		1141.5,2007.2 1039.3,1905 576.7,1905 551.7,1880 551.7,1865 551.7,1840.2 541.7,1830.2 	"/>
	<polyline fill="none" stroke="#009B3A" stroke-width="9" stroke-linejoin="round" points="1341.8,1996 1199.1,2078.9 
		1129.6,2009.4 1035.2,1915 572.6,1915 541.7,1884.1 541.7,1730.1 567,1704.8 	"/>
	<polyline fill="none" stroke="#009B3A" stroke-width="9" stroke-linejoin="round" points="1341.8,1996 1383.1,1972.2 
		1410.6,1944.7 1581.4,2115.6 	"/>
	<line fill="none" stroke="#6D6E71" stroke-width="9" stroke-linejoin="round" x1="1255" y1="2133.5" x2="1255" y2="1870.3"/>
</g>
</svg>
